<svg width="512" height="512" xmlns="http://www.w3.org/2000/svg" xmlns:svg="http://www.w3.org/2000/svg">
 <g>
  <title>Layer 1</title>
  <g class="asc-arrow">
   <g display="none" opacity="0.3" id="svg_1">
    <line fill="none" stroke="#B35047" x1="48" y1="0" x2="48" y2="512" id="svg_2"/>
    <line fill="none" stroke="#B35047" x1="80" y1="0" x2="80" y2="512" id="svg_3"/>
    <line fill="none" stroke="#B35047" x1="112" y1="0" x2="112" y2="512" id="svg_4"/>
    <line fill="none" stroke="#B35047" x1="144" y1="0" x2="144" y2="512" id="svg_5"/>
    <line fill="none" stroke="#B35047" x1="176" y1="0" x2="176" y2="512" id="svg_6"/>
    <line fill="none" stroke="#B35047" x1="208" y1="0" x2="208" y2="512" id="svg_7"/>
    <line fill="none" stroke="#B35047" x1="240" y1="0" x2="240" y2="512" id="svg_8"/>
    <line fill="none" stroke="#B35047" x1="272" y1="0" x2="272" y2="512" id="svg_9"/>
    <line fill="none" stroke="#B35047" x1="304" y1="0" x2="304" y2="512" id="svg_10"/>
    <line fill="none" stroke="#B35047" x1="336" y1="0" x2="336" y2="512" id="svg_11"/>
    <line fill="none" stroke="#B35047" x1="368" y1="0" x2="368" y2="512" id="svg_12"/>
    <line fill="none" stroke="#B35047" x1="400" y1="0" x2="400" y2="512" id="svg_13"/>
    <line fill="none" stroke="#B35047" x1="432" y1="0" x2="432" y2="512" id="svg_14"/>
    <line fill="none" stroke="#B35047" x1="464" y1="0" x2="464" y2="512" id="svg_15"/>
    <line fill="none" stroke="#B35047" x1="496" y1="0" x2="496" y2="512" id="svg_16"/>
    <line fill="none" stroke="#B35047" x1="0" y1="48" x2="512" y2="48" id="svg_17"/>
    <line fill="none" stroke="#B35047" x1="0" y1="80" x2="512" y2="80" id="svg_18"/>
    <line fill="none" stroke="#B35047" x1="0" y1="112" x2="512" y2="112" id="svg_19"/>
    <line fill="none" stroke="#B35047" x1="0" y1="144" x2="512" y2="144" id="svg_20"/>
    <line fill="none" stroke="#B35047" x1="0" y1="176" x2="512" y2="176" id="svg_21"/>
    <line fill="none" stroke="#B35047" x1="0" y1="208" x2="512" y2="208" id="svg_22"/>
    <line fill="none" stroke="#B35047" x1="0" y1="240" x2="512" y2="240" id="svg_23"/>
    <line fill="none" stroke="#B35047" x1="0" y1="272" x2="512" y2="272" id="svg_24"/>
    <line fill="none" stroke="#B35047" x1="0" y1="304" x2="512" y2="304" id="svg_25"/>
    <line fill="none" stroke="#B35047" x1="0" y1="336" x2="512" y2="336" id="svg_26"/>
    <line fill="none" stroke="#B35047" x1="0" y1="368" x2="512" y2="368" id="svg_27"/>
    <line fill="none" stroke="#B35047" x1="0" y1="400" x2="512" y2="400" id="svg_28"/>
    <line fill="none" stroke="#B35047" x1="0" y1="432" x2="512" y2="432" id="svg_29"/>
    <line fill="none" stroke="#B35047" x1="0" y1="464" x2="512" y2="464" id="svg_30"/>
    <line fill="none" stroke="#B35047" x1="0" y1="496" x2="512" y2="496" id="svg_31"/>
    <line fill="none" stroke="#B35047" x1="0" y1="16" x2="512" y2="16" id="svg_32"/>
    <line fill="none" stroke="#B35047" x1="16" y1="0" x2="16" y2="512" id="svg_33"/>
   </g>
   <g display="none" id="svg_34">
    <line fill="none" stroke="#B35047" x1="32" y1="0" x2="32" y2="512" id="svg_35"/>
    <line fill="none" stroke="#B35047" x1="64" y1="0" x2="64" y2="512" id="svg_36"/>
    <line fill="none" stroke="#B35047" x1="96" y1="0" x2="96" y2="512" id="svg_37"/>
    <line fill="none" stroke="#B35047" x1="128" y1="0" x2="128" y2="512" id="svg_38"/>
    <line fill="none" stroke="#B35047" x1="160" y1="0" x2="160" y2="512" id="svg_39"/>
    <line fill="none" stroke="#B35047" x1="192" y1="0" x2="192" y2="512" id="svg_40"/>
    <line fill="none" stroke="#B35047" x1="224" y1="0" x2="224" y2="512" id="svg_41"/>
    <line fill="none" stroke="#B35047" x1="256" y1="0" x2="256" y2="512" id="svg_42"/>
    <line fill="none" stroke="#B35047" x1="288" y1="0" x2="288" y2="512" id="svg_43"/>
    <line fill="none" stroke="#B35047" x1="320" y1="0" x2="320" y2="512" id="svg_44"/>
    <line fill="none" stroke="#B35047" x1="352" y1="0" x2="352" y2="512" id="svg_45"/>
    <line fill="none" stroke="#B35047" x1="384" y1="0" x2="384" y2="512" id="svg_46"/>
    <line fill="none" stroke="#B35047" x1="416" y1="0" x2="416" y2="512" id="svg_47"/>
    <line fill="none" stroke="#B35047" x1="448" y1="0" x2="448" y2="512" id="svg_48"/>
    <line fill="none" stroke="#B35047" x1="480" y1="0" x2="480" y2="512" id="svg_49"/>
    <line fill="none" stroke="#B35047" x1="0" y1="32" x2="512" y2="32" id="svg_50"/>
    <line fill="none" stroke="#B35047" x1="0" y1="64" x2="512" y2="64" id="svg_51"/>
    <line fill="none" stroke="#B35047" x1="0" y1="96" x2="512" y2="96" id="svg_52"/>
    <line fill="none" stroke="#B35047" x1="0" y1="128" x2="512" y2="128" id="svg_53"/>
    <line fill="none" stroke="#B35047" x1="0" y1="160" x2="512" y2="160" id="svg_54"/>
    <line fill="none" stroke="#B35047" x1="0" y1="192" x2="512" y2="192" id="svg_55"/>
    <line fill="none" stroke="#B35047" x1="0" y1="224" x2="512" y2="224" id="svg_56"/>
    <line fill="none" stroke="#B35047" x1="0" y1="256" x2="512" y2="256" id="svg_57"/>
    <line fill="none" stroke="#B35047" x1="0" y1="288" x2="512" y2="288" id="svg_58"/>
    <line fill="none" stroke="#B35047" x1="0" y1="320" x2="512" y2="320" id="svg_59"/>
    <line fill="none" stroke="#B35047" x1="0" y1="352" x2="512" y2="352" id="svg_60"/>
    <line fill="none" stroke="#B35047" x1="0" y1="384" x2="512" y2="384" id="svg_61"/>
    <line fill="none" stroke="#B35047" x1="0" y1="416" x2="512" y2="416" id="svg_62"/>
    <line fill="none" stroke="#B35047" x1="0" y1="448" x2="512" y2="448" id="svg_63"/>
    <line fill="none" stroke="#B35047" x1="0" y1="480" x2="512" y2="480" id="svg_64"/>
    <rect fill="none" stroke="#B35047" width="512" height="512" id="svg_65"/>
   </g>
   <g id="svg_66">
    <polygon points="384,192 256,64 128,192  " id="svg_67"/>
   </g>
  </g>
  <g class="desc-arrow">
   <g display="none" opacity="0.3" id="svg_68">
    <line fill="none" stroke="#B35047" x1="48" y1="0" x2="48" y2="512" id="svg_69"/>
    <line fill="none" stroke="#B35047" x1="80" y1="0" x2="80" y2="512" id="svg_70"/>
    <line fill="none" stroke="#B35047" x1="112" y1="0" x2="112" y2="512" id="svg_71"/>
    <line fill="none" stroke="#B35047" x1="144" y1="0" x2="144" y2="512" id="svg_72"/>
    <line fill="none" stroke="#B35047" x1="176" y1="0" x2="176" y2="512" id="svg_73"/>
    <line fill="none" stroke="#B35047" x1="208" y1="0" x2="208" y2="512" id="svg_74"/>
    <line fill="none" stroke="#B35047" x1="240" y1="0" x2="240" y2="512" id="svg_75"/>
    <line fill="none" stroke="#B35047" x1="272" y1="0" x2="272" y2="512" id="svg_76"/>
    <line fill="none" stroke="#B35047" x1="304" y1="0" x2="304" y2="512" id="svg_77"/>
    <line fill="none" stroke="#B35047" x1="336" y1="0" x2="336" y2="512" id="svg_78"/>
    <line fill="none" stroke="#B35047" x1="368" y1="0" x2="368" y2="512" id="svg_79"/>
    <line fill="none" stroke="#B35047" x1="400" y1="0" x2="400" y2="512" id="svg_80"/>
    <line fill="none" stroke="#B35047" x1="432" y1="0" x2="432" y2="512" id="svg_81"/>
    <line fill="none" stroke="#B35047" x1="464" y1="0" x2="464" y2="512" id="svg_82"/>
    <line fill="none" stroke="#B35047" x1="496" y1="0" x2="496" y2="512" id="svg_83"/>
    <line fill="none" stroke="#B35047" x1="0" y1="48" x2="512" y2="48" id="svg_84"/>
    <line fill="none" stroke="#B35047" x1="0" y1="80" x2="512" y2="80" id="svg_85"/>
    <line fill="none" stroke="#B35047" x1="0" y1="112" x2="512" y2="112" id="svg_86"/>
    <line fill="none" stroke="#B35047" x1="0" y1="144" x2="512" y2="144" id="svg_87"/>
    <line fill="none" stroke="#B35047" x1="0" y1="176" x2="512" y2="176" id="svg_88"/>
    <line fill="none" stroke="#B35047" x1="0" y1="208" x2="512" y2="208" id="svg_89"/>
    <line fill="none" stroke="#B35047" x1="0" y1="240" x2="512" y2="240" id="svg_90"/>
    <line fill="none" stroke="#B35047" x1="0" y1="272" x2="512" y2="272" id="svg_91"/>
    <line fill="none" stroke="#B35047" x1="0" y1="304" x2="512" y2="304" id="svg_92"/>
    <line fill="none" stroke="#B35047" x1="0" y1="336" x2="512" y2="336" id="svg_93"/>
    <line fill="none" stroke="#B35047" x1="0" y1="368" x2="512" y2="368" id="svg_94"/>
    <line fill="none" stroke="#B35047" x1="0" y1="400" x2="512" y2="400" id="svg_95"/>
    <line fill="none" stroke="#B35047" x1="0" y1="432" x2="512" y2="432" id="svg_96"/>
    <line fill="none" stroke="#B35047" x1="0" y1="464" x2="512" y2="464" id="svg_97"/>
    <line fill="none" stroke="#B35047" x1="0" y1="496" x2="512" y2="496" id="svg_98"/>
    <line fill="none" stroke="#B35047" x1="0" y1="16" x2="512" y2="16" id="svg_99"/>
    <line fill="none" stroke="#B35047" x1="16" y1="0" x2="16" y2="512" id="svg_100"/>
   </g>
   <g display="none" id="svg_101">
    <line fill="none" stroke="#B35047" x1="32" y1="0" x2="32" y2="512" id="svg_102"/>
    <line fill="none" stroke="#B35047" x1="64" y1="0" x2="64" y2="512" id="svg_103"/>
    <line fill="none" stroke="#B35047" x1="96" y1="0" x2="96" y2="512" id="svg_104"/>
    <line fill="none" stroke="#B35047" x1="128" y1="0" x2="128" y2="512" id="svg_105"/>
    <line fill="none" stroke="#B35047" x1="160" y1="0" x2="160" y2="512" id="svg_106"/>
    <line fill="none" stroke="#B35047" x1="192" y1="0" x2="192" y2="512" id="svg_107"/>
    <line fill="none" stroke="#B35047" x1="224" y1="0" x2="224" y2="512" id="svg_108"/>
    <line fill="none" stroke="#B35047" x1="256" y1="0" x2="256" y2="512" id="svg_109"/>
    <line fill="none" stroke="#B35047" x1="288" y1="0" x2="288" y2="512" id="svg_110"/>
    <line fill="none" stroke="#B35047" x1="320" y1="0" x2="320" y2="512" id="svg_111"/>
    <line fill="none" stroke="#B35047" x1="352" y1="0" x2="352" y2="512" id="svg_112"/>
    <line fill="none" stroke="#B35047" x1="384" y1="0" x2="384" y2="512" id="svg_113"/>
    <line fill="none" stroke="#B35047" x1="416" y1="0" x2="416" y2="512" id="svg_114"/>
    <line fill="none" stroke="#B35047" x1="448" y1="0" x2="448" y2="512" id="svg_115"/>
    <line fill="none" stroke="#B35047" x1="480" y1="0" x2="480" y2="512" id="svg_116"/>
    <line fill="none" stroke="#B35047" x1="0" y1="32" x2="512" y2="32" id="svg_117"/>
    <line fill="none" stroke="#B35047" x1="0" y1="64" x2="512" y2="64" id="svg_118"/>
    <line fill="none" stroke="#B35047" x1="0" y1="96" x2="512" y2="96" id="svg_119"/>
    <line fill="none" stroke="#B35047" x1="0" y1="128" x2="512" y2="128" id="svg_120"/>
    <line fill="none" stroke="#B35047" x1="0" y1="160" x2="512" y2="160" id="svg_121"/>
    <line fill="none" stroke="#B35047" x1="0" y1="192" x2="512" y2="192" id="svg_122"/>
    <line fill="none" stroke="#B35047" x1="0" y1="224" x2="512" y2="224" id="svg_123"/>
    <line fill="none" stroke="#B35047" x1="0" y1="256" x2="512" y2="256" id="svg_124"/>
    <line fill="none" stroke="#B35047" x1="0" y1="288" x2="512" y2="288" id="svg_125"/>
    <line fill="none" stroke="#B35047" x1="0" y1="320" x2="512" y2="320" id="svg_126"/>
    <line fill="none" stroke="#B35047" x1="0" y1="352" x2="512" y2="352" id="svg_127"/>
    <line fill="none" stroke="#B35047" x1="0" y1="384" x2="512" y2="384" id="svg_128"/>
    <line fill="none" stroke="#B35047" x1="0" y1="416" x2="512" y2="416" id="svg_129"/>
    <line fill="none" stroke="#B35047" x1="0" y1="448" x2="512" y2="448" id="svg_130"/>
    <line fill="none" stroke="#B35047" x1="0" y1="480" x2="512" y2="480" id="svg_131"/>
    <rect fill="none" stroke="#B35047" width="512" height="512" id="svg_132"/>
   </g>
   <g id="svg_133">
    <polygon points="128,320 256,448 384,320  " id="svg_134"/>
   </g>
  </g>
 </g>
</svg>