<?xml version="1.0" encoding="utf-8"?>
<!-- Generator: Adobe Illustrator 19.1.0, SVG Export Plug-In . SVG Version: 6.00 Build 0)  -->
<svg version="1.1" xmlns="http://www.w3.org/2000/svg" xmlns:xlink="http://www.w3.org/1999/xlink" x="0px" y="0px" width="20px"
	 height="20px" viewBox="-284 411.9 20 20" enable-background="new -284 411.9 20 20" xml:space="preserve">
<g id="Essai_01" xmlns:sketch="http://www.bohemiancoding.com/sketch/ns" display="none">
	<title>Icône duplicate</title>
	<desc>Created with Sketch.</desc>
	<g display="inline">
		<g>
			<path fill="#1D4F76" d="M-204.3,414.7l0,14.2h-10.2V428l3-3.5l0.2-0.2l0.1-0.2l4.3-9.3H-204.3 M-204,412.7h-4.2l-4.9,10.5
				l-3.5,4.1v1.8c0,1,0.7,1.8,1.7,1.8h10.9c0.9,0,1.7-0.8,1.7-1.8v-14.6C-202.3,413.5-203.1,412.7-204,412.7L-204,412.7z"/>
		</g>
		<path id="Fill-1_1_" fill="#1D4F76" d="M-218.7,422h7.8v1h-7.8V422z"/>
		<path id="Fill-1-Copy-2_1_" fill="#1D4F76" d="M-218.7,418.9h7.8v1h-7.8V418.9z"/>
		<path id="Fill-1-Copy-3_1_" fill="#1D4F76" d="M-218.7,415.9h7.8v1h-7.8V415.9z"/>
		<g id="Rectangle-62_1_">
			<path fill="#1D4F76" d="M-209.9,412.9v12.4h-10.2v-12.4H-209.9 M-209.6,410.9h-10.9c-0.9,0-1.7,0.8-1.7,1.8v12.7
				c0,1,0.7,1.8,1.7,1.8h10.9c0.9,0,1.7-0.8,1.7-1.8v-12.7C-207.9,411.7-208.7,410.9-209.6,410.9L-209.6,410.9z"/>
		</g>
	</g>
</g>
<g id="Essai_01_-_Vecteurs">
	<g>
		<path fill="none" d="M-271.7,413.9h-10.2l0,12.4h10.2L-271.7,413.9z M-272.6,424h-7.8v-1h7.8V424z M-272.6,421h-7.8v-1h7.8V421z
			 M-272.6,417.9h-7.8v-1h7.8V417.9z"/>
		<path fill="none" d="M-269.7,426.5c0,1-0.7,1.8-1.7,1.8h-5v1.6h10.2v-14.2h-3.6V426.5z"/>
		<rect x="-280.4" y="423" fill="#1D4F76" width="7.8" height="1"/>
		<rect x="-280.4" y="420" fill="#1D4F76" width="7.8" height="1"/>
		<rect x="-280.4" y="416.9" fill="#1D4F76" width="7.8" height="1"/>
		<path fill="#1D4F76" d="M-265.8,413.7h-3.9c0-1-0.7-1.8-1.7-1.8h-10.9c-0.9,0-1.7,0.8-1.7,1.8v12.7c0,1,0.7,1.8,1.7,1.8h3.9v1.8
			c0,1,0.7,1.8,1.7,1.8h10.9c0.9,0,1.7-0.8,1.7-1.8v-14.5C-264.1,414.5-264.8,413.7-265.8,413.7z M-281.9,426.3l0-12.4h10.2l0,12.4
			H-281.9z M-266.1,429.9h-10.2v-1.6h5c0.9,0,1.7-0.8,1.7-1.8v-10.7h3.6V429.9z"/>
	</g>
</g>
</svg>
