<svg width="20" height="20" xmlns="http://www.w3.org/2000/svg" xmlns:svg="http://www.w3.org/2000/svg" viewBox="0 0 20 20">
 <g>
  <title>Layer 1</title>
  <g id="Essai_01_-_Vecteurs">
   <g id="svg_5">
    <path id="svg_6" d="m12.29999,1.99997l-10.20001,0l0,12.39999l10.20001,0l0,-12.39999zm-0.89999,10.10001l-7.80002,0l0,-1l7.80002,0l0,1zm0,-3l-7.80002,0l0,-1l7.80002,0l0,1zm0,-3.10001l-7.80002,0l0,-1l7.80002,0l0,1z" fill="none"/>
    <path id="svg_7" d="m14.29999,14.59998c0,1 -0.70001,1.79999 -1.70001,1.79999l-5,0l0,1.60001l10.20001,0l0,-14.19998l-3.60001,0l0,10.79999l0.10001,0l0,-0.00001z" fill="none"/>
    <rect id="svg_8" height="1" width="7.8" fill="#1D4F76" y="11.09998" x="3.6"/>
    <rect id="svg_9" height="1" width="7.8" fill="#1D4F76" y="8.09998" x="3.6"/>
    <rect id="svg_10" height="1" width="7.8" fill="#1D4F76" y="4.99998" x="3.6"/>
    <path id="svg_11" d="m18.20001,1.79999l-3.89999,0c0,-1 -0.70001,-1.79999 -1.70001,-1.79999l-10.89999,0c-0.89999,0 -1.70001,0.79999 -1.70001,1.79999l0,12.70001c0,1 0.70001,1.79999 1.70001,1.79999l3.89999,0l0,1.79999c0,1 0.70001,1.80002 1.70001,1.80002l10.89999,0c0.89999,0 1.70001,-0.80002 1.70001,-1.80002l0,-14.5c-0.00003,-1 -0.70001,-1.79999 -1.70001,-1.79999zm-16.10001,12.59998l0,-12.39999l10.20001,0l0,12.39999l-10.20001,0zm15.79999,3.60001l-10.20001,0l0,-1.60001l5,0c0.89999,0 1.70001,-0.79999 1.70001,-1.79999l0,-10.70001l3.60001,0l0,14.10001l-0.10001,0z" fill="#1D4F76"/>
   </g>
  </g>
 </g>
 <g>
  <title>Layer 2</title>
  <g display="none" id="Essai_01">
   <g id="svg_1" display="inline">
    <g id="svg_2">
     <path id="svg_3" d="m-204.3,414.70001l0,14.20001l-10.2,0l0,-0.90002l3,-3.5l0.2,-0.20001l0.10001,-0.19998l4.3,-9.30002l2.59999,0m0.3,-2.09998l-4.2,0l-4.90001,10.5l-3.5,4.10001l0,1.79999c0,1 0.70001,1.80002 1.70001,1.80002l10.89998,0c0.89998,0 1.70001,-0.80002 1.70001,-1.80002l0,-14.60001c0,-1 -0.8,-1.79999 -1.70001,-1.79999l0,0l0.00002,0z" fill="#1D4F76"/>
    </g>
    <path d="m-218.7,422l7.8,0l0,1l-7.8,0l0,-1z" fill="#1D4F76" id="Fill-1_1_"/>
    <path d="m-218.7,418.89999l7.8,0l0,1l-7.8,0l0,-1z" fill="#1D4F76" id="Fill-1-Copy-2_1_"/>
    <path d="m-218.7,415.89999l7.8,0l0,1l-7.8,0l0,-1z" fill="#1D4F76" id="Fill-1-Copy-3_1_"/>
    <g id="Rectangle-62_1_">
     <path id="svg_4" d="m-209.89999,412.89999l0,12.39999l-10.2,0l0,-12.39999l10.2,0m0.29999,-2l-10.90001,0c-0.89998,0 -1.7,0.79999 -1.7,1.79999l0,12.70001c0,1 0.7,1.79999 1.7,1.79999l10.90001,0c0.89999,0 1.70001,-0.79999 1.70001,-1.79999l0,-12.70001c0.00003,-0.99997 -0.8,-1.79999 -1.70001,-1.79999l0,0z" fill="#1D4F76"/>
    </g>
   </g>
  </g>
 </g>
</svg>
