<svg width="20" height="20" xmlns="http://www.w3.org/2000/svg" xmlns:svg="http://www.w3.org/2000/svg" xmlns:xlink="http://www.w3.org/1999/xlink">
 <g>
  <title>Layer 1</title>
  <g id="Activity"/>
  <g id="Popup">
   <g id="svg_1">
    <g id="svg_2">
     <path id="svg_3" d="m10,4.6c-2,0 -3.7,1.6 -3.7,3.7l1.8,0c0,-1 0.8,-1.8 1.8,-1.8s1.8,0.8 1.8,1.8c0,1.8 -2.8,1.6 -2.8,4.6l1.8,0c0,-2.1 2.8,-2.3 2.8,-4.6c0.2,-2.1 -1.5,-3.7 -3.5,-3.7z" fill="#3A6085" clip-rule="evenodd" fill-rule="evenodd"/>
     <rect id="svg_4" height="1.8" width="1.8" class="st0" y="13.8" x="9.1"/>
     <path id="svg_5" fill-rule="evenodd" clip-rule="evenodd" fill="#3A6085" d="m10,17.2c-4,0 -7.2,-3.2 -7.2,-7.2s3.2,-7.2 7.2,-7.2s7.2,3.2 7.2,7.2s-3.2,7.2 -7.2,7.2zm0,-16.2c-5,0 -9,4 -9,9s4,9 9,9c5,0 9,-4 9,-9s-4,-9 -9,-9z"/>
    </g>
   </g>
   <rect id="svg_6" height="2800" width="1920" fill="none" y="-116" x="-1114"/>
  </g>
  <g id="Tags_20px">
   <g id="svg_7">
    <defs>
     <rect height="1080" width="1920" y="-127.2" x="-683.4" id="SVGID_1_"/>
    </defs>
    <clipPath id="SVGID_2_">
     <use id="svg_8" xlink:href="#SVGID_1_"/>
    </clipPath>
   </g>
  </g>
 </g>
</svg>