<svg width="46" height="46" viewBox="0 0 46 46" xmlns="http://www.w3.org/2000/svg" xmlns:svg="http://www.w3.org/2000/svg">
 <title>btn_google_light_normal_ios</title>
 <desc>Created with Sketch.</desc>
 <defs>
  <filter id="filter-1" filterUnits="objectBoundingBox" height="200%" width="200%" y="-50%" x="-50%">
   <feGaussianBlur stdDeviation="0.5"/>
   <feGaussianBlur stdDeviation="0.5"/>
  </filter>
  <rect rx="2" height="40" width="40" y="0" x="0" id="path-2"/>
 </defs>
 <g>
  <title>Layer 1</title>
  <g stroke="null" fill-rule="evenodd" fill="none" id="Google-Button">
   <g stroke="null" id="9-PATCH"/>
   <g stroke="null" filter="url(#filter-1)" id="button"/>
   <path stroke="null" fill="#4285F4" id="Shape" d="m34.04,23.27273c0,-0.85092 -0.07318,-1.66909 -0.2091,-2.45455l-10.83091,0l0,4.64181l6.18909,0c-0.26659,1.5 -1.07682,2.77091 -2.29477,3.62181l0,3.01092l3.71658,0c2.17455,-2.08909 3.4291,-5.16546 3.4291,-8.82l0,0z"/>
   <path stroke="null" fill="#34A853" id="Shape" d="m23,35c3.105,0 5.70818,-1.07455 7.6109,-2.90727l-3.71658,-3.01092c-1.02977,0.72 -2.34705,1.14545 -3.89432,1.14545c-2.99523,0 -5.53045,-2.11091 -6.43477,-4.94727l-3.84205,0l0,3.1091c1.89227,3.92181 5.78137,6.6109 10.27682,6.6109l0,0z"/>
   <path stroke="null" fill="#FBBC05" id="Shape" d="m16.56523,25.28c-0.23,-0.72 -0.36068,-1.48909 -0.36068,-2.28c0,-0.7909 0.13068,-1.56 0.36068,-2.28l0,-3.10909l-3.84205,0c-0.77886,1.62 -1.22318,3.45273 -1.22318,5.38909c0,1.93636 0.44432,3.76909 1.22318,5.3891l3.84205,-3.1091l0,0z"/>
   <path stroke="null" fill="#EA4335" id="Shape" d="m23,15.77273c1.6884,0 3.20432,0.60545 4.39613,1.79453l3.29842,-3.44181c-1.9916,-1.93636 -4.59477,-3.12545 -7.69455,-3.12545c-4.49545,0 -8.38455,2.68909 -10.27682,6.61091l3.84205,3.10909c0.90432,-2.83636 3.43955,-4.94727 6.43477,-4.94727l0,0z"/>
   <path stroke="null" id="Shape" d="m11.5,11l23,0l0,24l-23,0l0,-24z"/>
   <g stroke="null" id="handles_square"/>
  </g>
 </g>
</svg>
