<svg version="1.1" xmlns="http://www.w3.org/2000/svg" xmlns:xlink="http://www.w3.org/1999/xlink" x="0px" y="0px"
	 width="24px" height="24px" viewBox="-285 408.89 24 24">
	<path d="M-265.35,421.39c0-0.1,0-0.3,0-0.5c0-0.1,0-0.3,0-0.5l1.6-1.2c0.5-0.4,0.6-1.1,0.3-1.6l-1.8-3.1
		c-0.3-0.5-0.9-0.7-1.5-0.5l-1.9,0.8c-0.3-0.3-0.7-0.4-1-0.6l-0.3-2c-0.1-0.6-0.6-1-1.2-1h-3.7c-0.6,0-1.1,0.4-1.2,1l-0.3,2
		c-0.3,0.2-0.7,0.4-1,0.6l-1.9-0.8c-0.6-0.2-1.2,0-1.5,0.5l-1.8,3.1c-0.3,0.6-0.2,1.2,0.3,1.6l1.6,1.2c0,0.1,0,0.3,0,0.5
		c0,0.1,0,0.3,0,0.5l-1.6,1.2c-0.5,0.4-0.6,1.1-0.3,1.6l1.8,3.1c0.3,0.5,0.9,0.7,1.5,0.5l1.9-0.8c0.3,0.3,0.7,0.4,1,0.6l0.3,2
		c0.1,0.6,0.6,1,1.2,1h3.7c0.6,0,1.1-0.4,1.1-1.1l0.3-2c0.3-0.2,0.7-0.4,1-0.6l1.9,0.8c0.6,0.2,1.2,0,1.5-0.5l1.9-3.1
		c0.3-0.5,0.2-1.1-0.3-1.5L-265.35,421.39z M-266.45,426.29l-2.5-1l-0.3,0.2c-0.5,0.4-0.9,0.6-1.4,0.8l-0.4,0.2l-0.4,2.6h-3.2
		l-0.4-2.7l-0.4-0.2c-0.5-0.2-1-0.5-1.4-0.8l-0.3-0.2l-2.5,1l-1.6-2.7l2.1-1.6l-0.1-0.4c-0.1-0.3-0.1-0.5-0.1-0.8s0.1-0.5,0.1-0.8
		l0.1-0.4l-2.1-1.6l1.6-2.7l2.5,1l0.3-0.2c0.5-0.4,0.9-0.6,1.4-0.8l0.4-0.2l0.4-2.5h3.2l0.4,2.5l0.4,0.2c0.5,0.2,1,0.5,1.4,0.8
		l0.3,0.3l2.5-1l1.6,2.7l-2.1,1.6l0.1,0.4c0.1,0.3,0.1,0.5,0.1,0.8s-0.1,0.5-0.1,0.8l-0.1,0.4l2.1,1.6L-266.45,426.29z"/>
	<path d="M-273.05,417.39c-1.9,0-3.5,1.6-3.5,3.5c0,1.9,1.6,3.5,3.5,3.5s3.5-1.6,3.5-3.5
		C-269.55,418.99-271.15,417.39-273.05,417.39z M-273.05,423.39c-1.4,0-2.5-1.1-2.5-2.5c0-1.4,1.1-2.5,2.5-2.5s2.5,1.1,2.5,2.5
		C-270.55,422.29-271.65,423.39-273.05,423.39z"/>
</svg>
