<svg xmlns="http://www.w3.org/2000/svg" width="1920" height="1080" opacity="0.25"><path d="M-156,-405L534,-401L975,-433Z" fill="#e2e2e2" stroke="#e2e2e2" stroke-width="1.51"/><path d="M975,-433L1488,-327L1793,-383Z" fill="#aeaeae" stroke="#aeaeae" stroke-width="1.51"/><path d="M1699,1434L1447,1456L1929,1450Z" fill="#303030" stroke="#303030" stroke-width="1.51"/><path d="M975,-433L1793,-383L2035,-423Z" fill="#a6a6a6" stroke="#a6a6a6" stroke-width="1.51"/><path d="M975,-433L2035,-423L2258,-444Z" fill="#9b9b9b" stroke="#9b9b9b" stroke-width="1.51"/><path d="M2071,143L2189,191L2271,-122Z" fill="#6e6e6e" stroke="#6e6e6e" stroke-width="1.51"/><path d="M1999,-41L2071,143L2271,-122Z" fill="#747474" stroke="#747474" stroke-width="1.51"/><path d="M2258,-444L2035,-423L2271,-122Z" fill="#7c7c7c" stroke="#7c7c7c" stroke-width="1.51"/><path d="M2035,-423L1999,-41L2271,-122Z" fill="#7d7d7d" stroke="#7d7d7d" stroke-width="1.51"/><path d="M2037,1257L2163,1342L2279,1148Z" fill="#232323" stroke="#232323" stroke-width="1.51"/><path d="M1950,836L2037,1257L2279,1148Z" fill="#343434" stroke="#343434" stroke-width="1.51"/><path d="M1950,836L2279,1148L2280,830Z" fill="#3a3a3a" stroke="#3a3a3a" stroke-width="1.51"/><path d="M2189,191L1964,354L2280,441Z" fill="#626262" stroke="#626262" stroke-width="1.51"/><path d="M2271,-122L2189,191L2280,441Z" fill="#666666" stroke="#666666" stroke-width="1.51"/><path d="M1950,836L2280,830L2281,576Z" fill="#464646" stroke="#464646" stroke-width="1.51"/><path d="M1902,692L1950,836L2281,576Z" fill="#4f4f4f" stroke="#4f4f4f" stroke-width="1.51"/><path d="M2280,441L1964,354L2281,576Z" fill="#585858" stroke="#585858" stroke-width="1.51"/><path d="M1964,354L1902,692L2281,576Z" fill="#595959" stroke="#595959" stroke-width="1.51"/><path d="M-65,1374L-333,1350L188,1422Z" fill="#7d7d7d" stroke="#7d7d7d" stroke-width="1.51"/><path d="M2071,143L1964,354L2189,191Z" fill="#6c6c6c" stroke="#6c6c6c" stroke-width="1.51"/><path d="M1950,836L1762,1140L2037,1257Z" fill="#3f3f3f" stroke="#3f3f3f" stroke-width="1.51"/><path d="M2037,1257L1929,1450L2163,1342Z" fill="#212121" stroke="#212121" stroke-width="1.51"/><path d="M1728,1011L1762,1140L1950,836Z" fill="#4b4b4b" stroke="#4b4b4b" stroke-width="1.51"/><path d="M1793,-383L1765,-114L1999,-41Z" fill="#8d8d8d" stroke="#8d8d8d" stroke-width="1.51"/><path d="M1793,-383L1999,-41L2035,-423Z" fill="#898989" stroke="#898989" stroke-width="1.51"/><path d="M1999,-41L1665,121L2071,143Z" fill="#7e7e7e" stroke="#7e7e7e" stroke-width="1.51"/><path d="M1665,121L1964,354L2071,143Z" fill="#787878" stroke="#787878" stroke-width="1.51"/><path d="M1698,621L1902,692L1964,354Z" fill="#646464" stroke="#646464" stroke-width="1.51"/><path d="M1762,1140L1929,1450L2037,1257Z" fill="#2d2d2d" stroke="#2d2d2d" stroke-width="1.51"/><path d="M1762,1140L1699,1434L1929,1450Z" fill="#303030" stroke="#303030" stroke-width="1.51"/><path d="M1647,436L1698,621L1964,354Z" fill="#707070" stroke="#707070" stroke-width="1.51"/><path d="M1765,-114L1665,121L1999,-41Z" fill="#898989" stroke="#898989" stroke-width="1.51"/><path d="M1665,121L1647,436L1964,354Z" fill="#7d7d7d" stroke="#7d7d7d" stroke-width="1.51"/><path d="M1902,692L1728,1011L1950,836Z" fill="#515151" stroke="#515151" stroke-width="1.51"/><path d="M1698,621L1728,1011L1902,692Z" fill="#5c5c5c" stroke="#5c5c5c" stroke-width="1.51"/><path d="M1504,215L1647,436L1665,121Z" fill="#8a8a8a" stroke="#8a8a8a" stroke-width="1.51"/><path d="M1698,621L1501,664L1728,1011Z" fill="#656565" stroke="#656565" stroke-width="1.51"/><path d="M1501,664L1538,1006L1728,1011Z" fill="#5f5f5f" stroke="#5f5f5f" stroke-width="1.51"/><path d="M1554,1106L1699,1434L1762,1140Z" fill="#414141" stroke="#414141" stroke-width="1.51"/><path d="M1556,-170L1765,-114L1793,-383Z" fill="#9a9a9a" stroke="#9a9a9a" stroke-width="1.51"/><path d="M1488,-327L1556,-170L1793,-383Z" fill="#a1a1a1" stroke="#a1a1a1" stroke-width="1.51"/><path d="M1728,1011L1554,1106L1762,1140Z" fill="#4d4d4d" stroke="#4d4d4d" stroke-width="1.51"/><path d="M1556,-170L1665,121L1765,-114Z" fill="#969696" stroke="#969696" stroke-width="1.51"/><path d="M447,1403L188,1422L729,1440Z" fill="#696969" stroke="#696969" stroke-width="1.51"/><path d="M1554,1106L1447,1456L1699,1434Z" fill="#3d3d3d" stroke="#3d3d3d" stroke-width="1.51"/><path d="M1538,1006L1554,1106L1728,1011Z" fill="#555555" stroke="#555555" stroke-width="1.51"/><path d="M1448,490L1501,664L1647,436Z" fill="#7a7a7a" stroke="#7a7a7a" stroke-width="1.51"/><path d="M1647,436L1501,664L1698,621Z" fill="#737373" stroke="#737373" stroke-width="1.51"/><path d="M975,-433L1254,-273L1488,-327Z" fill="#b6b6b6" stroke="#b6b6b6" stroke-width="1.51"/><path d="M1504,215L1448,490L1647,436Z" fill="#858585" stroke="#858585" stroke-width="1.51"/><path d="M1556,-170L1504,215L1665,121Z" fill="#969696" stroke="#969696" stroke-width="1.51"/><path d="M1280,1249L1447,1456L1554,1106Z" fill="#484848" stroke="#484848" stroke-width="1.51"/><path d="M1501,664L1282,872L1538,1006Z" fill="#696969" stroke="#696969" stroke-width="1.51"/><path d="M1488,-327L1254,-273L1556,-170Z" fill="#aaaaaa" stroke="#aaaaaa" stroke-width="1.51"/><path d="M1254,-273L1135,-16L1556,-170Z" fill="#acacac" stroke="#acacac" stroke-width="1.51"/><path d="M1188,137L1504,215L1556,-170Z" fill="#9e9e9e" stroke="#9e9e9e" stroke-width="1.51"/><path d="M1135,-16L1188,137L1556,-170Z" fill="#a7a7a7" stroke="#a7a7a7" stroke-width="1.51"/><path d="M1538,1006L1280,1249L1554,1106Z" fill="#555555" stroke="#555555" stroke-width="1.51"/><path d="M1233,459L1448,490L1504,215Z" fill="#8b8b8b" stroke="#8b8b8b" stroke-width="1.51"/><path d="M1282,872L1280,1249L1538,1006Z" fill="#606060" stroke="#606060" stroke-width="1.51"/><path d="M1448,490L1160,576L1501,664Z" fill="#7f7f7f" stroke="#7f7f7f" stroke-width="1.51"/><path d="M1188,137L1233,459L1504,215Z" fill="#989898" stroke="#989898" stroke-width="1.51"/><path d="M1160,576L1282,872L1501,664Z" fill="#797979" stroke="#797979" stroke-width="1.51"/><path d="M1221,1359L1052,1451L1447,1456Z" fill="#454545" stroke="#454545" stroke-width="1.51"/><path d="M1280,1249L1221,1359L1447,1456Z" fill="#464646" stroke="#464646" stroke-width="1.51"/><path d="M1233,459L1160,576L1448,490Z" fill="#888888" stroke="#888888" stroke-width="1.51"/><path d="M1003,627L1028,886L1160,576Z" fill="#858585" stroke="#858585" stroke-width="1.51"/><path d="M1188,137L949,224L1233,459Z" fill="#a1a1a1" stroke="#a1a1a1" stroke-width="1.51"/><path d="M884,1243L1221,1359L1280,1249Z" fill="#555555" stroke="#555555" stroke-width="1.51"/><path d="M1028,886L884,1243L1280,1249Z" fill="#666666" stroke="#666666" stroke-width="1.51"/><path d="M1028,886L1280,1249L1282,872Z" fill="#6b6b6b" stroke="#6b6b6b" stroke-width="1.51"/><path d="M1160,576L1028,886L1282,872Z" fill="#7b7b7b" stroke="#7b7b7b" stroke-width="1.51"/><path d="M949,224L907,412L1233,459Z" fill="#a0a0a0" stroke="#a0a0a0" stroke-width="1.51"/><path d="M919,-46L1135,-16L1254,-273Z" fill="#b6b6b6" stroke="#b6b6b6" stroke-width="1.51"/><path d="M975,-433L919,-46L1254,-273Z" fill="#bebebe" stroke="#bebebe" stroke-width="1.51"/><path d="M884,1243L1052,1451L1221,1359Z" fill="#535353" stroke="#535353" stroke-width="1.51"/><path d="M907,412L1160,576L1233,459Z" fill="#939393" stroke="#939393" stroke-width="1.51"/><path d="M907,412L1003,627L1160,576Z" fill="#939393" stroke="#939393" stroke-width="1.51"/><path d="M1135,-16L949,224L1188,137Z" fill="#acacac" stroke="#acacac" stroke-width="1.51"/><path d="M919,-46L949,224L1135,-16Z" fill="#b3b3b3" stroke="#b3b3b3" stroke-width="1.51"/><path d="M754,-142L919,-46L975,-433Z" fill="#c5c5c5" stroke="#c5c5c5" stroke-width="1.51"/><path d="M713,-293L754,-142L975,-433Z" fill="#cccccc" stroke="#cccccc" stroke-width="1.51"/><path d="M632,888L884,1243L1028,886Z" fill="#7c7c7c" stroke="#7c7c7c" stroke-width="1.51"/><path d="M1003,627L756,698L1028,886Z" fill="#8a8a8a" stroke="#8a8a8a" stroke-width="1.51"/><path d="M884,1243L729,1440L1052,1451Z" fill="#595959" stroke="#595959" stroke-width="1.51"/><path d="M756,698L632,888L1028,886Z" fill="#8a8a8a" stroke="#8a8a8a" stroke-width="1.51"/><path d="M907,412L756,698L1003,627Z" fill="#979797" stroke="#979797" stroke-width="1.51"/><path d="M632,888L636,1221L884,1243Z" fill="#797979" stroke="#797979" stroke-width="1.51"/><path d="M689,451L756,698L907,412Z" fill="#a1a1a1" stroke="#a1a1a1" stroke-width="1.51"/><path d="M919,-46L649,64L949,224Z" fill="#bbbbbb" stroke="#bbbbbb" stroke-width="1.51"/><path d="M534,-401L713,-293L975,-433Z" fill="#d3d3d3" stroke="#d3d3d3" stroke-width="1.51"/><path d="M689,451L907,412L949,224Z" fill="#a9a9a9" stroke="#a9a9a9" stroke-width="1.51"/><path d="M649,64L689,451L949,224Z" fill="#b6b6b6" stroke="#b6b6b6" stroke-width="1.51"/><path d="M754,-142L649,64L919,-46Z" fill="#c4c4c4" stroke="#c4c4c4" stroke-width="1.51"/><path d="M636,1221L729,1440L884,1243Z" fill="#656565" stroke="#656565" stroke-width="1.51"/><path d="M-156,-405L234,-294L534,-401Z" fill="#eaeaea" stroke="#eaeaea" stroke-width="1.51"/><path d="M428,71L401,421L649,64Z" fill="#c7c7c7" stroke="#c7c7c7" stroke-width="1.51"/><path d="M649,64L401,421L689,451Z" fill="#bcbcbc" stroke="#bcbcbc" stroke-width="1.51"/><path d="M713,-293L392,-115L754,-142Z" fill="#d4d4d4" stroke="#d4d4d4" stroke-width="1.51"/><path d="M392,-115L649,64L754,-142Z" fill="#cfcfcf" stroke="#cfcfcf" stroke-width="1.51"/><path d="M689,451L423,738L756,698Z" fill="#a2a2a2" stroke="#a2a2a2" stroke-width="1.51"/><path d="M423,738L632,888L756,698Z" fill="#999999" stroke="#999999" stroke-width="1.51"/><path d="M401,421L423,738L689,451Z" fill="#adadad" stroke="#adadad" stroke-width="1.51"/><path d="M534,-401L392,-115L713,-293Z" fill="#dadada" stroke="#dadada" stroke-width="1.51"/><path d="M636,1221L447,1403L729,1440Z" fill="#686868" stroke="#686868" stroke-width="1.51"/><path d="M632,888L365,1148L636,1221Z" fill="#848484" stroke="#848484" stroke-width="1.51"/><path d="M410,867L365,1148L632,888Z" fill="#909090" stroke="#909090" stroke-width="1.51"/><path d="M392,-115L428,71L649,64Z" fill="#d0d0d0" stroke="#d0d0d0" stroke-width="1.51"/><path d="M423,738L410,867L632,888Z" fill="#999999" stroke="#999999" stroke-width="1.51"/><path d="M365,1148L447,1403L636,1221Z" fill="#757575" stroke="#757575" stroke-width="1.51"/><path d="M401,421L279,689L423,738Z" fill="#adadad" stroke="#adadad" stroke-width="1.51"/><path d="M158,242L401,421L428,71Z" fill="#cacaca" stroke="#cacaca" stroke-width="1.51"/><path d="M234,-294L392,-115L534,-401Z" fill="#e1e1e1" stroke="#e1e1e1" stroke-width="1.51"/><path d="M234,-294L255,-131L392,-115Z" fill="#e1e1e1" stroke="#e1e1e1" stroke-width="1.51"/><path d="M104,965L365,1148L410,867Z" fill="#959595" stroke="#959595" stroke-width="1.51"/><path d="M392,-115L255,-131L428,71Z" fill="#d9d9d9" stroke="#d9d9d9" stroke-width="1.51"/><path d="M365,1148L188,1422L447,1403Z" fill="#757575" stroke="#757575" stroke-width="1.51"/><path d="M163,417L279,689L401,421Z" fill="#b9b9b9" stroke="#b9b9b9" stroke-width="1.51"/><path d="M158,242L163,417L401,421Z" fill="#c5c5c5" stroke="#c5c5c5" stroke-width="1.51"/><path d="M279,689L410,867L423,738Z" fill="#a2a2a2" stroke="#a2a2a2" stroke-width="1.51"/><path d="M255,-131L158,242L428,71Z" fill="#d6d6d6" stroke="#d6d6d6" stroke-width="1.51"/><path d="M104,965L151,1144L365,1148Z" fill="#909090" stroke="#909090" stroke-width="1.51"/><path d="M151,1144L188,1422L365,1148Z" fill="#808080" stroke="#808080" stroke-width="1.51"/><path d="M279,689L104,965L410,867Z" fill="#a1a1a1" stroke="#a1a1a1" stroke-width="1.51"/><path d="M-109,86L158,242L255,-131Z" fill="#dcdcdc" stroke="#dcdcdc" stroke-width="1.51"/><path d="M-68,-192L-109,86L255,-131Z" fill="#e5e5e5" stroke="#e5e5e5" stroke-width="1.51"/><path d="M163,417L-16,617L279,689Z" fill="#b8b8b8" stroke="#b8b8b8" stroke-width="1.51"/><path d="M-16,617L104,965L279,689Z" fill="#ababab" stroke="#ababab" stroke-width="1.51"/><path d="M20,455L-16,617L163,417Z" fill="#c1c1c1" stroke="#c1c1c1" stroke-width="1.51"/><path d="M234,-294L-68,-192L255,-131Z" fill="#e7e7e7" stroke="#e7e7e7" stroke-width="1.51"/><path d="M151,1144L-65,1374L188,1422Z" fill="#7d7d7d" stroke="#7d7d7d" stroke-width="1.51"/><path d="M-156,-405L-68,-192L234,-294Z" fill="#efefef" stroke="#efefef" stroke-width="1.51"/><path d="M158,242L20,455L163,417Z" fill="#c9c9c9" stroke="#c9c9c9" stroke-width="1.51"/><path d="M-16,617L-150,982L104,965Z" fill="#a9a9a9" stroke="#a9a9a9" stroke-width="1.51"/><path d="M-141,1249L-65,1374L151,1144Z" fill="#868686" stroke="#868686" stroke-width="1.51"/><path d="M104,965L-150,982L151,1144Z" fill="#9b9b9b" stroke="#9b9b9b" stroke-width="1.51"/><path d="M-229,246L20,455L158,242Z" fill="#d1d1d1" stroke="#d1d1d1" stroke-width="1.51"/><path d="M-109,86L-229,246L158,242Z" fill="#dadada" stroke="#dadada" stroke-width="1.51"/><path d="M-150,982L-141,1249L151,1144Z" fill="#949494" stroke="#949494" stroke-width="1.51"/><path d="M-257,898L-150,982L-16,617Z" fill="#aeaeae" stroke="#aeaeae" stroke-width="1.51"/><path d="M-304,688L-257,898L-16,617Z" fill="#b6b6b6" stroke="#b6b6b6" stroke-width="1.51"/><path d="M-282,433L-16,617L20,455Z" fill="#c5c5c5" stroke="#c5c5c5" stroke-width="1.51"/><path d="M-229,246L-282,433L20,455Z" fill="#d0d0d0" stroke="#d0d0d0" stroke-width="1.51"/><path d="M-290,-63L-109,86L-68,-192Z" fill="#eaeaea" stroke="#eaeaea" stroke-width="1.51"/><path d="M-282,433L-304,688L-16,617Z" fill="#c1c1c1" stroke="#c1c1c1" stroke-width="1.51"/><path d="M-156,-405L-323,-346L-68,-192Z" fill="#f4f4f4" stroke="#f4f4f4" stroke-width="1.51"/><path d="M-141,1249L-333,1350L-65,1374Z" fill="#838383" stroke="#838383" stroke-width="1.51"/><path d="M-323,-346L-290,-63L-68,-192Z" fill="#f2f2f2" stroke="#f2f2f2" stroke-width="1.51"/><path d="M-150,982L-406,1201L-141,1249Z" fill="#969696" stroke="#969696" stroke-width="1.51"/><path d="M-290,-63L-229,246L-109,86Z" fill="#e3e3e3" stroke="#e3e3e3" stroke-width="1.51"/><path d="M-257,898L-406,1201L-150,982Z" fill="#a3a3a3" stroke="#a3a3a3" stroke-width="1.51"/><path d="M-406,1201L-333,1350L-141,1249Z" fill="#8b8b8b" stroke="#8b8b8b" stroke-width="1.51"/><path d="M-290,-63L-282,433L-229,246Z" fill="#dedede" stroke="#dedede" stroke-width="1.51"/><path d="M-304,688L-406,1201L-257,898Z" fill="#aaaaaa" stroke="#aaaaaa" stroke-width="1.51"/><path d="M-323,-346L-406,1201L-290,-63Z" fill="#dddddd" stroke="#dddddd" stroke-width="1.51"/><path d="M-290,-63L-406,1201L-282,433Z" fill="#c8c8c8" stroke="#c8c8c8" stroke-width="1.51"/><path d="M-406,1201L-304,688L-282,433Z" fill="#b6b6b6" stroke="#b6b6b6" stroke-width="1.51"/></svg>
